# xmcd
#
# Track frame offsets:
#   150
#   16000
#   31700
#   49075
#   65800
#
# Disc length: 1184 seconds
#
# Revision: 0
# Processed by: cddbd v1.5.2PL0 Copyright (c) Steve Scherf et al.
# Submitted via: MusicWizard 8.0.2
#
DISCID=35049e05
DTITLE=In-Mood Feat. Juliette / The Last Unicorn
DYEAR=1999
DGENRE=Pop
TTITLE0=The Last Unicorn (Radio Edit)
TTITLE1=The Last Unicorn (Elemental Radio Mix)
TTITLE2=The Last Unicorn (Orchestral Mix)
TTITLE3=What About Sunshine (Single Mix)
TTITLE4=What About Sunshine (Extended Mix)
EXTD=
EXTT0=
EXTT1=
EXTT2=
EXTT3=
EXTT4=
PLAYORDER=
.
